<svg xmlns="http://www.w3.org/2000/svg" viewBox="0 0 400 300">
  <defs>
    <linearGradient id="bg6" x1="0" y1="0" x2="1" y2="1">
      <stop offset="0%" stop-color="#FDF4FF"/>
      <stop offset="100%" stop-color="#EDE9FE"/>
    </linearGradient>
    <linearGradient id="trophy1" x1="0" y1="0" x2="0" y2="1">
      <stop offset="0%" stop-color="#FBBF24"/>
      <stop offset="100%" stop-color="#F59E0B"/>
    </linearGradient>
  </defs>
  <rect width="400" height="300" fill="url(#bg6)"/>
  <!-- podium -->
  <rect x="150" y="210" width="100" height="40" fill="#7C3AED" opacity="0.85"/>
  <rect x="90" y="230" width="60" height="20" fill="#2563EB" opacity="0.7"/>
  <rect x="250" y="230" width="60" height="20" fill="#06B6D4" opacity="0.7"/>
  <!-- trophy -->
  <path d="M180 130 h40 v40 a20 20 0 0 1 -40 0 Z" fill="url(#trophy1)"/>
  <path d="M180 135 c-18 0 -22 25 -2 30" fill="none" stroke="#F59E0B" stroke-width="6" stroke-linecap="round"/>
  <path d="M220 135 c18 0 22 25 2 30" fill="none" stroke="#F59E0B" stroke-width="6" stroke-linecap="round"/>
  <rect x="192" y="168" width="16" height="18" fill="#F59E0B"/>
  <rect x="180" y="186" width="40" height="10" rx="3" fill="#B45309"/>
  <polygon points="200,142 205,153 217,153 207,160 211,172 200,164 189,172 193,160 183,153 195,153" fill="#ffffff" opacity="0.9"/>
  <!-- certificate -->
  <g transform="translate(275,150) rotate(12)">
    <rect x="0" y="0" width="60" height="42" rx="4" fill="#ffffff" stroke="#2563EB" stroke-width="2"/>
    <line x1="10" y1="12" x2="50" y2="12" stroke="#7C3AED" stroke-width="3"/>
    <line x1="10" y1="21" x2="42" y2="21" stroke="#94A3B8" stroke-width="2"/>
    <line x1="10" y1="29" x2="46" y2="29" stroke="#94A3B8" stroke-width="2"/>
    <circle cx="48" cy="34" r="6" fill="#F59E0B"/>
  </g>
  <!-- stars -->
  <g fill="#7C3AED">
    <polygon points="90,80 94,90 105,90 96,97 99,108 90,101 81,108 84,97 75,90 86,90"/>
  </g>
  <g fill="#06B6D4">
    <polygon points="320,90 323,97 331,97 325,102 327,110 320,105 313,110 315,102 309,97 317,97"/>
  </g>
</svg>
