<svg xmlns="http://www.w3.org/2000/svg" viewBox="0 0 400 300">
  <defs>
    <linearGradient id="bg4" x1="0" y1="0" x2="1" y2="1">
      <stop offset="0%" stop-color="#EEF2FF"/>
      <stop offset="100%" stop-color="#F5F3FF"/>
    </linearGradient>
    <linearGradient id="screen1" x1="0" y1="0" x2="1" y2="1">
      <stop offset="0%" stop-color="#0F172A"/>
      <stop offset="100%" stop-color="#1E293B"/>
    </linearGradient>
  </defs>
  <rect width="400" height="300" fill="url(#bg4)"/>
  <!-- laptop -->
  <rect x="110" y="90" width="180" height="115" rx="10" fill="url(#screen1)"/>
  <rect x="122" y="102" width="156" height="91" rx="4" fill="#0B1220"/>
  <!-- code lines -->
  <rect x="134" y="114" width="60" height="6" rx="3" fill="#06B6D4"/>
  <rect x="134" y="128" width="90" height="6" rx="3" fill="#7C3AED"/>
  <rect x="146" y="142" width="70" height="6" rx="3" fill="#22C55E"/>
  <rect x="146" y="156" width="50" height="6" rx="3" fill="#F59E0B"/>
  <rect x="134" y="170" width="40" height="6" rx="3" fill="#06B6D4"/>
  <!-- keyboard base -->
  <path d="M95 205 L305 205 L290 230 a10 10 0 0 1 -9 6 H119 a10 10 0 0 1 -9 -6 Z" fill="#334155"/>
  <!-- floating tags -->
  <g transform="translate(60,60)">
    <rect x="0" y="0" width="46" height="24" rx="12" fill="#2563EB"/>
    <text x="23" y="16" font-family="Arial, sans-serif" font-size="11" fill="#fff" text-anchor="middle" font-weight="bold">&lt;/&gt;</text>
  </g>
  <g transform="translate(300,55)">
    <rect x="0" y="0" width="60" height="24" rx="12" fill="#7C3AED"/>
    <text x="30" y="16" font-family="Arial, sans-serif" font-size="10" fill="#fff" text-anchor="middle" font-weight="bold">Python</text>
  </g>
  <circle cx="340" cy="220" r="24" fill="#06B6D4" opacity="0.15"/>
  <circle cx="50" cy="240" r="20" fill="#7C3AED" opacity="0.12"/>
</svg>
