<svg xmlns="http://www.w3.org/2000/svg" viewBox="0 0 400 300">
  <defs>
    <linearGradient id="bg3" x1="0" y1="0" x2="1" y2="1">
      <stop offset="0%" stop-color="#ECFDF5"/>
      <stop offset="100%" stop-color="#EFF6FF"/>
    </linearGradient>
  </defs>
  <rect width="400" height="300" fill="url(#bg3)"/>
  <!-- bench -->
  <rect x="40" y="220" width="320" height="14" rx="6" fill="#94A3B8"/>
  <!-- flask 1 -->
  <path d="M175 120 L175 150 L150 210 a10 10 0 0 0 10 14 h60 a10 10 0 0 0 10 -14 L205 150 L205 120 Z" fill="#ffffff" stroke="#2563EB" stroke-width="3"/>
  <path d="M158 185 L202 185 L212 208 a6 6 0 0 1 -6 8 h-54 a6 6 0 0 1 -6 -8 Z" fill="#06B6D4" opacity="0.75"/>
  <rect x="167" y="112" width="16" height="10" fill="#2563EB"/>
  <circle cx="185" cy="195" r="4" fill="#ffffff"/>
  <circle cx="170" cy="200" r="3" fill="#ffffff"/>
  <!-- flask 2 (conical) -->
  <path d="M270 130 L270 155 L245 205 a8 8 0 0 0 8 12 h50 a8 8 0 0 0 8 -12 L281 155 L281 130 Z" fill="#ffffff" stroke="#7C3AED" stroke-width="3"/>
  <path d="M252 178 L299 178 L308 205 a5 5 0 0 1 -5 7 h-56 a5 5 0 0 1 -5 -7 Z" fill="#F59E0B" opacity="0.7"/>
  <rect x="262" y="122" width="16" height="10" fill="#7C3AED"/>
  <!-- atom icon -->
  <g transform="translate(90,90)">
    <ellipse cx="0" cy="0" rx="24" ry="9" fill="none" stroke="#2563EB" stroke-width="2.5" transform="rotate(0)"/>
    <ellipse cx="0" cy="0" rx="24" ry="9" fill="none" stroke="#06B6D4" stroke-width="2.5" transform="rotate(60)"/>
    <ellipse cx="0" cy="0" rx="24" ry="9" fill="none" stroke="#7C3AED" stroke-width="2.5" transform="rotate(120)"/>
    <circle cx="0" cy="0" r="5" fill="#2563EB"/>
  </g>
  <!-- bubbles -->
  <circle cx="330" cy="80" r="6" fill="#06B6D4" opacity="0.5"/>
  <circle cx="345" cy="100" r="4" fill="#7C3AED" opacity="0.5"/>
  <circle cx="320" cy="60" r="30" fill="#22C55E" opacity="0.08"/>
</svg>
